# xmcd CD database file
#
# Track frame offsets:
#	150
#	16702
#	30275
#	43795
#	56610
#	66677
#	71525
#	86175
#
# Disc length: 1376 seconds
#
# Revision: 0
# Processed by: cddbd v1.5.2PL0 Copyright (c) Steve Scherf et al.
# Submitted via: CDex 1.50
#
DISCID=68055e08
DTITLE=Marty Paich - Jazz For Relaxation
DYEAR=1956
DGENRE=Jazz
TTITLE0=Doll's Blues
TTITLE1=Jump For Me
TTITLE2=There'll Never Be Another You
TTITLE3=The Lamp Is Low
TTITLE4=What's New
TTITLE5=Theme From Lighthouse
TTITLE6=Lullaby Of The Leaves
TTITLE7=I'll Remember April
EXTD=YEAR: 1956
EXTT0=
EXTT1=
EXTT2=
EXTT3=
EXTT4=
EXTT5=
EXTT6=
EXTT7=
PLAYORDER=
